<svg width="24" height="24" fill="none" stroke="currentColor" stroke-linecap="round" stroke-linejoin="round" stroke-width="0.5" viewBox="0 0 24 24" xmlns="http://www.w3.org/2000/svg">
  <path d="M7.75 7.75h-1a2 2 0 0 0-2 2v7.5a2 2 0 0 0 2 2h10.086c.89 0 1.337-1.077.707-1.707"></path>
  <path d="M9.75 4.75h4.583a1 1 0 0 1 .923.615l.738 1.77a1 1 0 0 0 .923.615h.333a2 2 0 0 1 2 2v5.5"></path>
  <path d="M9.923 10.5a3.25 3.25 0 1 0 4.577 4.577"></path>
  <path d="M17.543 17.543 4.75 4.75"></path>
</svg>