<svg width="24" height="24" fill="none" stroke="currentColor" stroke-linecap="round" stroke-linejoin="round" stroke-width="0.5" viewBox="0 0 24 24" xmlns="http://www.w3.org/2000/svg">
  <path d="M5.75 19.25h3.5a1 1 0 0 0 1-1V5.75a1 1 0 0 0-1-1h-3.5a1 1 0 0 0-1 1v12.5a1 1 0 0 0 1 1Z"></path>
  <path d="M14.75 10.25h3.5a1 1 0 0 0 1-1v-3.5a1 1 0 0 0-1-1h-3.5a1 1 0 0 0-1 1v3.5a1 1 0 0 0 1 1Z"></path>
  <path d="M14.75 19.25h3.5a1 1 0 0 0 1-1v-3.5a1 1 0 0 0-1-1h-3.5a1 1 0 0 0-1 1v3.5a1 1 0 0 0 1 1Z"></path>
</svg>