<svg width="24" height="24" fill="none" stroke="currentColor" stroke-linecap="round" stroke-linejoin="round" stroke-width="0.5" viewBox="0 0 24 24" xmlns="http://www.w3.org/2000/svg">
  <path d="M19.25 16v-3.75A7.25 7.25 0 0 0 12 5v0a7.25 7.25 0 0 0-7.25 7.25V16"></path>
  <path d="M4.75 15.45a2.7 2.7 0 0 1 2.7-2.7v0a1.8 1.8 0 0 1 1.8 1.8v2.9a1.8 1.8 0 0 1-1.8 1.8v0a2.7 2.7 0 0 1-2.7-2.7v-1.1Z"></path>
  <path d="M14.75 14.55a1.8 1.8 0 0 1 1.8-1.8v0a2.7 2.7 0 0 1 2.7 2.7v1.1a2.7 2.7 0 0 1-2.7 2.7v0a1.8 1.8 0 0 1-1.8-1.8v-2.9Z"></path>
</svg>