<svg width="1373" height="225" viewBox="0 0 1373 225" fill="none" xmlns="http://www.w3.org/2000/svg">
<path d="M39.2916 166.05C31.9916 166.05 25.3916 164.8 19.4916 162.3C13.6916 159.8 9.09164 156.2 5.69164 151.5C2.29164 146.8 0.541635 141.25 0.441635 134.85L22.9416 134.85C23.2416 139.15 24.7416 142.55 27.4416 145.05C30.2416 147.55 34.0416 148.8 38.8416 148.8C43.7416 148.8 47.5916 147.65 50.3916 145.35C53.1916 142.95 54.5916 139.85 54.5916 136.05C54.5916 132.95 53.6416 130.4 51.7416 128.4C49.8416 126.4 47.4416 124.85 44.5416 123.75C41.7416 122.55 37.8416 121.25 32.8416 119.85C26.0416 117.85 20.4916 115.9 16.1916 114C11.9916 112 8.34163 109.05 5.24163 105.15C2.24163 101.15 0.741633 95.8501 0.741632 89.2501C0.741632 83.0501 2.29163 77.6501 5.39163 73.0501C8.49163 68.4501 12.8416 64.9501 18.4416 62.5501C24.0416 60.0501 30.4416 58.8001 37.6416 58.8001C48.4416 58.8001 57.1916 61.4501 63.8916 66.7501C70.6916 71.9501 74.4416 79.2501 75.1416 88.6501L52.0416 88.6501C51.8416 85.0501 50.2916 82.1001 47.3916 79.8001C44.5916 77.4001 40.8416 76.2001 36.1416 76.2001C32.0416 76.2001 28.7416 77.2501 26.2416 79.3501C23.8416 81.4501 22.6416 84.5001 22.6416 88.5001C22.6416 91.3001 23.5416 93.6501 25.3416 95.5501C27.2416 97.3501 29.5416 98.8501 32.2416 100.05C35.0416 101.15 38.9416 102.45 43.9416 103.95C50.7416 105.95 56.2916 107.95 60.5916 109.95C64.8916 111.95 68.5916 114.95 71.6916 118.95C74.7916 122.95 76.3416 128.2 76.3416 134.7C76.3416 140.3 74.8916 145.5 71.9916 150.3C69.0916 155.1 64.8416 158.95 59.2416 161.85C53.6416 164.65 46.9916 166.05 39.2916 166.05ZM188.298 60.3001L188.298 77.2501L160.398 77.2501L160.398 165L139.398 165L139.398 77.2501L111.498 77.2501L111.498 60.3001L188.298 60.3001ZM290.32 145.05L248.62 145.05L241.72 165L219.67 165L257.32 60.1501L281.77 60.1501L319.42 165L297.22 165L290.32 145.05ZM284.62 128.25L269.47 84.4501L254.32 128.25L284.62 128.25ZM409.993 165L386.893 124.2L376.993 124.2L376.993 165L355.993 165L355.993 60.3001L395.293 60.3001C403.393 60.3001 410.293 61.7501 415.993 64.6501C421.693 67.4501 425.943 71.3001 428.743 76.2001C431.643 81.0001 433.093 86.4001 433.093 92.4001C433.093 99.3001 431.093 105.55 427.093 111.15C423.093 116.65 417.143 120.45 409.243 122.55L434.293 165L409.993 165ZM376.993 108.45L394.543 108.45C400.243 108.45 404.493 107.1 407.293 104.4C410.093 101.6 411.493 97.7501 411.493 92.8501C411.493 88.0501 410.093 84.3501 407.293 81.7501C404.493 79.0501 400.243 77.7001 394.543 77.7001L376.993 77.7001L376.993 108.45ZM545.837 60.3001L545.837 77.2501L517.937 77.2501L517.937 165L496.937 165L496.937 77.2501L469.037 77.2501L469.037 60.3001L545.837 60.3001ZM723.609 60.3001L694.359 165L669.609 165L649.959 90.4501L629.409 165L604.809 165.15L576.609 60.3001L599.109 60.3001L617.559 141.6L638.859 60.3001L662.259 60.3001L682.359 141.15L700.959 60.3001L723.609 60.3001ZM780.821 60.3001L780.821 165L759.821 165L759.821 60.3001L780.821 60.3001ZM895.319 60.3001L895.319 77.2501L867.419 77.2501L867.419 165L846.419 165L846.419 77.2501L818.519 77.2501L818.519 60.3001L895.319 60.3001ZM1019.99 60.3001L1019.99 165L998.992 165L998.992 120.45L954.142 120.45L954.142 165L933.142 165L933.142 60.3001L954.142 60.3001L954.142 103.35L998.992 103.35L998.992 60.3001L1019.99 60.3001ZM1127.36 145.05L1085.66 145.05L1078.76 165L1056.71 165L1094.36 60.1501L1118.81 60.1501L1156.46 165L1134.26 165L1127.36 145.05ZM1121.66 128.25L1106.51 84.4501L1091.36 128.25L1121.66 128.25ZM1252.43 111.3C1258.33 112.4 1263.18 115.35 1266.98 120.15C1270.78 124.95 1272.68 130.45 1272.68 136.65C1272.68 142.25 1271.28 147.2 1268.48 151.5C1265.78 155.7 1261.83 159 1256.63 161.4C1251.43 163.8 1245.28 165 1238.18 165L1193.03 165L1193.03 60.3001L1236.23 60.3001C1243.33 60.3001 1249.43 61.4501 1254.53 63.7501C1259.73 66.0501 1263.63 69.2501 1266.23 73.3501C1268.93 77.4501 1270.28 82.1001 1270.28 87.3001C1270.28 93.4001 1268.63 98.5001 1265.33 102.6C1262.13 106.7 1257.83 109.6 1252.43 111.3ZM1214.03 103.5L1233.23 103.5C1238.23 103.5 1242.08 102.4 1244.78 100.2C1247.48 97.9001 1248.83 94.6501 1248.83 90.4501C1248.83 86.2501 1247.48 83.0001 1244.78 80.7001C1242.08 78.4001 1238.23 77.2501 1233.23 77.2501L1214.03 77.2501L1214.03 103.5ZM1235.18 147.9C1240.28 147.9 1244.23 146.7 1247.03 144.3C1249.93 141.9 1251.38 138.5 1251.38 134.1C1251.38 129.6 1249.88 126.1 1246.88 123.6C1243.88 121 1239.83 119.7 1234.73 119.7L1214.03 119.7L1214.03 147.9L1235.18 147.9ZM1332.92 77.2501L1332.92 103.5L1368.17 103.5L1368.17 120.15L1332.92 120.15L1332.92 147.9L1372.67 147.9L1372.67 165L1311.92 165L1311.92 60.15L1372.67 60.15L1372.67 77.25L1332.92 77.2501Z" fill="#707070"/>
</svg>
