<svg width="24" height="24" fill="none" stroke="currentColor" stroke-linecap="round" stroke-linejoin="round" stroke-width="0.5" viewBox="0 0 24 24" xmlns="http://www.w3.org/2000/svg">
  <path d="m19.25 10.25-5.5-5.5"></path>
  <path d="M17.75 19.25h.5a1 1 0 0 0 1-1v-2.5a1 1 0 0 0-1-1h-.5a1 1 0 0 0-1 1v2.5a1 1 0 0 0 1 1Z"></path>
  <path d="M11.75 19.25h.5a1 1 0 0 0 1-1v-5.5a1 1 0 0 0-1-1h-.5a1 1 0 0 0-1 1v5.5a1 1 0 0 0 1 1Z"></path>
  <path d="M5.75 19.25h.5a1 1 0 0 0 1-1V5.75a1 1 0 0 0-1-1h-.5a1 1 0 0 0-1 1v12.5a1 1 0 0 0 1 1Z"></path>
  <path d="M19.25 6.75v3.5h-3.5"></path>
</svg>