<svg width="24" height="24" fill="none" stroke="currentColor" stroke-linecap="round" stroke-linejoin="round" stroke-width="0.5" viewBox="0 0 24 24" xmlns="http://www.w3.org/2000/svg">
  <path fill="currentColor" stroke="none" d="M12 17a1 1 0 1 0 0 2 1 1 0 1 0 0-2z"></path>
  <path d="M9.5 14.563a4.231 4.231 0 0 1 2.5-.813c.934 0 1.798.302 2.5.813"></path>
  <path d="M16.713 11.228A8.212 8.212 0 0 0 12 9.75a8.212 8.212 0 0 0-4.712 1.478"></path>
  <path d="M5 7.946a12.194 12.194 0 0 1 7-2.196c2.603 0 5.016.812 7 2.196"></path>
</svg>