<?xml version="1.0" standalone="no"?><svg xmlns:xlink="http://www.w3.org/1999/xlink" xmlns="http://www.w3.org/2000/svg" viewBox="0 0 200 800" preserveAspectRatio="xMaxYMax slice"><g transform="scale(2.0151133501259446)"><rect x="0" y="0" width="99.25" height="397" fill="#ffffff"/><rect x="0" y="0" width="99.25" height="99.25" fill="#ffffff"/><rect x="0" y="0" width="49.63" height="49.63" fill="#151c38"/><polygon points="0,0 49.63,49.63 0,49.63" fill="#0c1431"/><rect x="49.63" y="0" width="49.63" height="49.63" fill="#ffe5eb"/><polygon points="49.63,0 99.26,0 99.26,49.63" fill="#585d71"/><rect x="0" y="49.63" width="49.63" height="49.63" fill="#ffc4d1"/><polygon points="49.63,49.63 49.63,99.26 0,99.26" fill="#ffedf1"/><rect x="49.63" y="49.63" width="49.63" height="49.63" fill="#fffcfd"/><polygon points="49.63,49.63 99.26,49.63 99.26,99.26" fill="#19213c"/><rect x="0" y="99.25" width="99.25" height="99.25" fill="#ffffff"/><rect x="0" y="99.25" width="49.63" height="49.63" fill="#ffd9e2"/><polygon points="0,99.25 49.63,99.25 49.63,148.88" fill="#ffcad6"/><rect x="49.63" y="99.25" width="49.63" height="49.63" fill="#dfe0e4"/><polygon points="49.63,99.25 99.26,99.25 99.26,148.88" fill="#ffd1dc"/><rect x="0" y="148.88" width="49.63" height="49.63" fill="#434960"/><polygon points="0,148.88 49.63,198.51 0,198.51" fill="#fff4f6"/><rect x="49.63" y="148.88" width="49.63" height="49.63" fill="#6d7183"/><polygon points="99.26,148.88 99.26,198.51 49.63,198.51" fill="#adb0ba"/><rect x="0" y="198.5" width="99.25" height="99.25" fill="#ffffff"/><rect x="0" y="198.5" width="49.63" height="49.63" fill="#383f56"/><polygon points="0,198.5 49.63,198.5 0,248.13" fill="#ffe7ed"/><rect x="49.63" y="198.5" width="49.63" height="49.63" fill="#ffe4ea"/><polygon points="99.26,198.5 99.26,248.13 49.63,248.13" fill="#ffedf1"/><rect x="0" y="248.13" width="49.63" height="49.63" fill="#d4d5da"/><polygon points="49.63,248.13 49.63,297.76 0,297.76" fill="#ffe6eb"/><rect x="49.63" y="248.13" width="49.63" height="49.63" fill="#ffdee5"/><polygon points="49.63,248.13 99.26,248.13 49.63,297.76" fill="#fffefe"/><rect x="0" y="297.75" width="99.25" height="99.25" fill="#ffffff"/><rect x="0" y="297.75" width="49.63" height="49.63" fill="#fff5f7"/><polygon points="0,297.75 49.63,297.75 49.63,347.38" fill="#9498a4"/><rect x="49.63" y="297.75" width="49.63" height="49.63" fill="#121936"/><polygon points="49.63,297.75 99.26,297.75 49.63,347.38" fill="#ffdbe4"/><rect x="0" y="347.38" width="49.63" height="49.63" fill="#ffedf1"/><polygon points="0,347.38 49.63,397.01 0,397.01" fill="#282e48"/><rect x="49.63" y="347.38" width="49.63" height="49.63" fill="#ffedf1"/><polygon points="49.63,347.38 99.26,397.01 49.63,397.01" fill="#1d2540"/></g></svg>