<?xml version="1.0" standalone="no"?><svg xmlns:xlink="http://www.w3.org/1999/xlink" xmlns="http://www.w3.org/2000/svg" viewBox="0 0 150 600" preserveAspectRatio="xMaxYMax slice"><g transform="scale(1.5113350125944585)"><rect x="0" y="0" width="99.25" height="397" fill="#ffffff"/><rect x="0" y="0" width="99.25" height="99.25" fill="#ffffff"/><rect x="0" y="0" width="49.63" height="49.63" fill="#1e2540"/><path d="M 0 0 A 49.63 49.63 0 0 0 49.63 49.63 L 49.63 0" fill="#fff5f7"/><rect x="49.63" y="0" width="49.63" height="49.63" fill="#fff1f4"/><path d="M 49.63 49.63 A 49.63 49.63 0 0 0 99.26 0 L 49.63 0" fill="#858998"/><rect x="0" y="49.63" width="49.63" height="49.63" fill="#383e56"/><path d="M 0 99.26 A 49.63 49.63 0 0 1  49.63 49.63 L 49.63 99.26" fill="#ffd0db"/><rect x="49.63" y="49.63" width="49.63" height="49.63" fill="#ffdce4"/><path d="M 49.63 49.63 A 49.63 49.63 0 0 1 99.26 99.26 L 49.63 99.26" fill="#787d8d"/><rect x="0" y="99.25" width="99.25" height="99.25" fill="#ffffff"/><rect x="0" y="99.25" width="49.63" height="49.63" fill="#fff6f8"/><path d="M 0 148.88 A 49.63 49.63 0 0 1  49.63 99.25 L 49.63 148.88" fill="#b7bac2"/><rect x="49.63" y="99.25" width="49.63" height="49.63" fill="#4c5167"/><path d="M 49.63 99.25 A 49.63 49.63 0 0 1 99.26 148.88 L 49.63 148.88" fill="#353c54"/><rect x="0" y="148.88" width="49.63" height="49.63" fill="#394057"/><path d="M 0 148.88 A 49.63 49.63 0 0 0 49.63 198.51 L 49.63 148.88" fill="#ffc2d0"/><rect x="49.63" y="148.88" width="49.63" height="49.63" fill="#ffeef2"/><path d="M 49.63 198.51 A 49.63 49.63 0 0 0 99.26 148.88 L 49.63 148.88" fill="#ffe7ec"/><rect x="0" y="198.5" width="99.25" height="99.25" fill="#373e55"/><polygon points="0,198.5 99.25,198.5 99.25,297.75" fill="#6b6f81"/><rect x="0" y="297.75" width="99.25" height="99.25" fill="#ffc5d2"/><path d="M 0 397 A 99.25 99.25 0 0 1  99.25 297.75 L 99.25 397" fill="#fffdfd"/></g></svg>